<svg id="Capa_1" enable-background="new 0 0 512 512" height="512" viewBox="0 0 512 512" width="512" xmlns="http://www.w3.org/2000/svg"><g><path d="m327 0c-102.009 0-185 82.991-185 185 0 45.616 16.605 87.422 44.076 119.711l-35.031 35.031-10.607-10.607c-5.858-5.858-15.355-5.858-21.213 0l-106.066 106.066c-17.545 17.545-17.545 46.094 0 63.64 17.545 17.545 46.094 17.545 63.64 0l106.066-106.066c5.858-5.858 5.858-15.355 0-21.213l-10.607-10.606 35.031-35.031c32.29 27.47 74.095 44.075 119.711 44.075 102.009 0 185-82.991 185-185s-82.991-185-185-185zm-271.414 477.628c-5.849 5.848-15.365 5.848-21.213 0-5.849-5.849-5.849-15.365 0-21.213l24.749-24.749 21.213 21.213zm45.961-45.962-21.213-21.213 49.498-49.497 21.213 21.213zm225.453-91.666c-85.467 0-155-69.533-155-155s69.533-155 155-155 155 69.533 155 155-69.533 155-155 155z"/><path d="m370.943 170.795c9.954-10.714 16.057-25.052 16.057-40.795 0-33.084-26.916-60-60-60s-60 26.916-60 60c0 15.743 6.103 30.081 16.057 40.795-30.32 15.887-51.057 47.667-51.057 84.205v10c0 8.284 6.716 15 15 15h160c8.284 0 15-6.716 15-15v-10c0-36.538-20.737-68.318-51.057-84.205zm-73.943-40.795c0-16.542 13.458-30 30-30s30 13.458 30 30-13.458 30-30 30-30-13.458-30-30zm-34.81 120c2.562-33.514 30.651-60 64.81-60s62.248 26.486 64.81 60z"/></g></svg>