<?xml version="1.0" encoding="utf-8"?>
<!-- Generator: Adobe Illustrator 21.0.2, SVG Export Plug-In . SVG Version: 6.00 Build 0)  -->
<svg version="1.1" id="Слой_1" xmlns="http://www.w3.org/2000/svg" xmlns:xlink="http://www.w3.org/1999/xlink" x="0px"
     y="0px"
     viewBox="0 0 88.4 82.8" style="enable-background:new 0 0 88.4 82.8;" xml:space="preserve">
<style type="text/css">
	.st0{fill:#FFFFFF;}
</style>
    <path class="st0" d="M88.4,27.4v-1H60.2V0h-1v26.4H44.9c-0.3-7.8-6.6-14-14.5-14c-8,0-14.5,6.5-14.5,14.5c0,7.9,6.4,14.4,14.3,14.5
	v14H0v1h30.2v26.5h1V56.4h13.5c0.3,8,6.9,14.5,15,14.5c8.3,0,15-6.7,15-15c0-8.1-6.5-14.7-14.5-15V27.4H88.4z M17.9,26.9
	c0-6.9,5.6-12.5,12.5-12.5S42.9,20,42.9,26.9s-5.6,12.5-12.5,12.5S17.9,33.8,17.9,26.9z M59.2,40.9c-7.9,0.3-14.2,6.6-14.5,14.5
	H31.2v-14c7.5-0.4,13.5-6.5,13.7-14h14.3V40.9z"/>
</svg>
